<?xml version="1.0" standalone="no"?>
<!DOCTYPE svg PUBLIC "-//W3C//DTD SVG 20010904//EN"
 "http://www.w3.org/TR/2001/REC-SVG-20010904/DTD/svg10.dtd">
<svg version="1.0" xmlns="http://www.w3.org/2000/svg"
 width="64.000000pt" height="64.000000pt" viewBox="0 0 64.000000 64.000000"
 preserveAspectRatio="xMidYMid meet">

<g transform="translate(0.000000,64.000000) scale(0.100000,-0.100000)"
fill="#000000" stroke="none">
<path d="M164 455 c-28 -28 -28 -38 -2 -123 11 -38 10 -47 -4 -73 l-17 -29 27
0 c22 0 40 14 84 68 l56 69 -40 46 c-57 68 -72 74 -104 42z"/>
<path d="M302 344 c-5 -11 -19 -49 -31 -85 l-22 -66 24 -41 c27 -47 37 -45 37
7 0 20 6 47 13 61 11 22 22 26 82 33 79 8 128 24 122 41 -5 16 -113 57 -168
63 -39 5 -49 2 -57 -13z"/>
</g>
</svg>
